<svg width="18" height="17" viewBox="0 0 18 17" fill="none" xmlns="http://www.w3.org/2000/svg">
<path d="M16.1507 4.90812C16.1626 5.08354 16.1626 5.25796 16.1626 5.43237C16.1626 10.77 12.4503 16.9207 5.66599 16.9207C3.57582 16.9207 1.63403 16.2581 0 15.1073C0.296764 15.1444 0.582536 15.1575 0.891207 15.1575C2.55179 15.1619 4.16536 14.5542 5.47181 13.4324C4.70189 13.4171 3.95554 13.1391 3.33698 12.6372C2.71841 12.1353 2.2585 11.4345 2.02147 10.6327C2.24954 10.6698 2.47853 10.6949 2.7185 10.6949C3.04916 10.6949 3.38164 10.6447 3.69031 10.5575C2.85476 10.3729 2.10343 9.87727 1.56407 9.15489C1.02472 8.43252 0.730637 7.52799 0.731834 6.59513V6.54501C1.22369 6.84472 1.79432 7.03217 2.39884 7.05723C1.89241 6.68894 1.47715 6.18919 1.19011 5.60256C0.903077 5.01594 0.753187 4.36068 0.753816 3.69524C0.753816 2.94546 0.936088 2.25783 1.25575 1.65841C2.18281 2.90639 3.33905 3.92736 4.64961 4.65518C5.96016 5.38301 7.39579 5.80146 8.86353 5.88344C8.80674 5.58273 8.77193 5.27099 8.77193 4.95824C8.77169 4.42795 8.86696 3.90279 9.05228 3.41281C9.2376 2.92283 9.50935 2.47763 9.85199 2.10265C10.1946 1.72767 10.6014 1.43028 11.0492 1.22746C11.4969 1.02465 11.9768 0.920391 12.4613 0.920655C13.5238 0.920655 14.4828 1.40781 15.1569 2.19568C15.9829 2.02088 16.775 1.69091 17.4981 1.22037C17.2227 2.1534 16.646 2.94457 15.8759 3.44565C16.6085 3.35421 17.3244 3.14339 18 2.82017C17.4954 3.62518 16.8702 4.3311 16.1507 4.90812V4.90812Z" fill="white"/>
</svg>
