<svg width="19" height="19" viewBox="0 0 19 19" fill="none" xmlns="http://www.w3.org/2000/svg">
<path d="M8.99499 4.36816C7.76918 4.36816 6.59357 4.85436 5.72678 5.7198C4.86 6.58524 4.37305 7.75902 4.37305 8.98293C4.37305 10.2068 4.86 11.3806 5.72678 12.2461C6.59357 13.1115 7.76918 13.5977 8.99499 13.5977C10.2208 13.5977 11.3964 13.1115 12.2632 12.2461C13.13 11.3806 13.6169 10.2068 13.6169 8.98293C13.6169 7.75902 13.13 6.58524 12.2632 5.7198C11.3964 4.85436 10.2208 4.36816 8.99499 4.36816V4.36816ZM8.99499 11.9799C8.19864 11.9799 7.4349 11.6641 6.87179 11.1018C6.30868 10.5396 5.99233 9.77706 5.99233 8.98194C5.99233 8.18682 6.30868 7.42426 6.87179 6.86203C7.4349 6.29979 8.19864 5.98393 8.99499 5.98393C9.79135 5.98393 10.5551 6.29979 11.1182 6.86203C11.6813 7.42426 11.9977 8.18682 11.9977 8.98194C11.9977 9.77706 11.6813 10.5396 11.1182 11.1018C10.5551 11.6641 9.79135 11.9799 8.99499 11.9799V11.9799Z" fill="white"/>
<path d="M13.8004 5.27425C14.3958 5.27425 14.8784 4.79258 14.8784 4.19841C14.8784 3.60423 14.3958 3.12256 13.8004 3.12256C13.205 3.12256 12.7224 3.60423 12.7224 4.19841C12.7224 4.79258 13.205 5.27425 13.8004 5.27425Z" fill="white"/>
<path d="M17.5252 3.10468C17.2938 2.50806 16.9402 1.96624 16.487 1.51392C16.0338 1.0616 15.491 0.708746 14.8933 0.477937C14.194 0.215818 13.4552 0.0740855 12.7083 0.0587749C11.7457 0.0168588 11.4409 0.00488281 8.99995 0.00488281C6.55904 0.00488281 6.24618 0.00488271 5.2916 0.0587749C4.54532 0.0733027 3.80702 0.215064 3.10857 0.477937C2.51077 0.708477 1.96784 1.06124 1.51461 1.51359C1.06139 1.96595 0.707868 2.5079 0.476742 3.10468C0.214164 3.8029 0.0725363 4.54065 0.0579282 5.28632C0.0149473 6.2464 0.00195312 6.55079 0.00195312 8.98891C0.00195312 11.426 0.00195312 11.7364 0.0579282 12.6915C0.0729216 13.438 0.213859 14.1745 0.476742 14.8741C0.708517 15.4707 1.06238 16.0124 1.51572 16.4647C1.96905 16.917 2.5119 17.2699 3.10957 17.5009C3.8067 17.7735 4.54531 17.9254 5.2936 17.95C6.25617 17.9919 6.56104 18.0049 9.00195 18.0049C11.4429 18.0049 11.7557 18.0049 12.7103 17.95C13.4571 17.9348 14.1959 17.7934 14.8953 17.5318C15.4928 17.3005 16.0355 16.9473 16.4886 16.4949C16.9417 16.0424 17.2955 15.5006 17.5272 14.9041C17.79 14.2055 17.931 13.469 17.946 12.7224C17.989 11.7624 18.002 11.458 18.002 9.01985C18.002 6.58173 18.002 6.27235 17.946 5.31726C17.9343 4.56104 17.792 3.81252 17.5252 3.10468V3.10468ZM16.3077 12.6177C16.3013 13.1928 16.1961 13.7626 15.9968 14.3023C15.8467 14.6904 15.6169 15.0428 15.3222 15.3369C15.0275 15.631 14.6744 15.8602 14.2856 16.0099C13.7511 16.2079 13.1865 16.3129 12.6163 16.3203C11.6668 16.3642 11.3989 16.3751 8.96397 16.3751C6.52705 16.3751 6.27816 16.3751 5.31059 16.3203C4.74077 16.3133 4.17642 16.2083 3.64234 16.0099C3.2522 15.8612 2.89767 15.6323 2.60169 15.3382C2.30571 15.044 2.07487 14.6911 1.9241 14.3023C1.72763 13.7684 1.62254 13.2053 1.61324 12.6366C1.57026 11.6885 1.56026 11.4211 1.56026 8.98991C1.56026 6.55778 1.56026 6.30927 1.61324 5.34221C1.6197 4.76738 1.72484 4.19792 1.9241 3.65858C2.22896 2.87115 2.85369 2.25139 3.64234 1.94999C4.17669 1.75253 4.74087 1.64756 5.31059 1.63961C6.26117 1.5967 6.52805 1.58472 8.96397 1.58472C11.3999 1.58472 11.6498 1.58472 12.6163 1.63961C13.1865 1.64646 13.7512 1.75146 14.2856 1.94999C14.6744 2.09997 15.0274 2.32944 15.3221 2.62368C15.6168 2.91792 15.8466 3.27042 15.9968 3.65858C16.1933 4.19246 16.2984 4.75554 16.3077 5.32424C16.3507 6.27335 16.3617 6.53981 16.3617 8.97195C16.3617 11.4031 16.3617 11.6646 16.3187 12.6187H16.3077V12.6177Z" fill="white"/>
</svg>
