<svg width="22" height="30" viewBox="0 0 22 30" fill="none" xmlns="http://www.w3.org/2000/svg">
<path d="M11 4.97339C9.99259 4.97339 9.00784 5.27211 8.17025 5.83177C7.33265 6.39143 6.67983 7.1869 6.29433 8.11759C5.90882 9.04827 5.80796 10.0724 6.00449 11.0604C6.20101 12.0484 6.68611 12.9559 7.39842 13.6683C8.11074 14.3806 9.01828 14.8657 10.0063 15.0622C10.9943 15.2587 12.0184 15.1579 12.9491 14.7724C13.8798 14.3868 14.6752 13.734 15.2349 12.8964C15.7946 12.0588 16.0933 11.0741 16.0933 10.0667C16.0933 8.71589 15.5567 7.42038 14.6015 6.46519C13.6463 5.51001 12.3508 4.97339 11 4.97339ZM11 13.3823C10.3442 13.3823 9.70317 13.1878 9.15793 12.8235C8.61269 12.4592 8.18772 11.9414 7.93678 11.3355C7.68583 10.7297 7.62017 10.063 7.7481 9.41989C7.87604 8.77674 8.19181 8.18596 8.6555 7.72227C9.11919 7.25858 9.70996 6.94281 10.3531 6.81487C10.9963 6.68694 11.6629 6.7526 12.2688 7.00355C12.8746 7.25449 13.3924 7.67946 13.7567 8.2247C14.1211 8.76994 14.3155 9.41097 14.3155 10.0667C14.3132 10.9445 13.9628 11.7856 13.3413 12.4054C12.7197 13.0253 11.8778 13.3734 11 13.3734V13.3823Z" fill="white"/>
<path d="M11 0.777832C8.23133 0.780145 5.57603 1.878 3.61409 3.83161C1.65216 5.78521 0.54302 8.43582 0.528931 11.2045C0.528931 15.3556 2.85782 18.8312 4.56449 21.3645L4.8756 21.8267C6.57362 24.2877 8.39522 26.6611 10.3334 28.9378L11.0089 29.7289L11.6845 28.9378C13.6224 26.6609 15.444 24.2875 17.1423 21.8267L17.4534 21.3556C19.1511 18.8223 21.48 15.3556 21.48 11.2045C21.4659 8.43428 20.3556 5.78233 18.3917 3.82847C16.4279 1.87461 13.7703 0.777796 11 0.777832ZM15.9689 20.3334L15.6489 20.8045C14.12 23.0978 12.0934 25.6667 11 26.9378C9.95115 25.6667 7.88004 23.0978 6.35115 20.8045L6.04004 20.3334C4.46671 17.9867 2.30671 14.7778 2.30671 11.1689C2.30671 10.0273 2.53157 8.89687 2.96845 7.84215C3.40533 6.78743 4.04568 5.82908 4.85293 5.02183C5.66018 4.21458 6.61852 3.57423 7.67325 3.13735C8.72797 2.70047 9.85842 2.47561 11 2.47561C12.1417 2.47561 13.2721 2.70047 14.3268 3.13735C15.3816 3.57423 16.3399 4.21458 17.1472 5.02183C17.9544 5.82908 18.5948 6.78743 19.0316 7.84215C19.4685 8.89687 19.6934 10.0273 19.6934 11.1689C19.6934 14.8134 17.5423 18.0223 15.9689 20.3334Z" fill="white"/>
</svg>
