<svg width="41" height="41" viewBox="0 0 41 41" fill="none" xmlns="http://www.w3.org/2000/svg">
<mask id="mask0_111_131" style="mask-type:alpha" maskUnits="userSpaceOnUse" x="0" y="0" width="41" height="41">
<circle cx="20.5" cy="20.5" r="20.5" fill="white"/>
</mask>
<g mask="url(#mask0_111_131)">
<path fill-rule="evenodd" clip-rule="evenodd" d="M40.5274 24.8965C40.8369 23.4802 41 22.0091 41 20.5C41 9.17816 31.8218 0 20.5 0C9.17816 0 0 9.17816 0 20.5C0 21.4499 0.0646114 22.3848 0.189679 23.3004L-1.00007 25L-6.86646e-05 30L2.3275 32.7155L2.49281 32.9084L-3.54592 41.5L-4.24878 42.5H-3.02648H43.0263H44.2486L43.5458 41.5L38.5328 34.3677L41.9999 27L40.5274 24.8965ZM40.2036 26.1776L34.9916 18.732L31.2373 23.9881L37.1719 32.4315C36.9527 32.7373 36.7253 33.0367 36.4901 33.3296L29.9999 24L30.0118 23.9834L19.9999 9.73903L3.94082 32.5872C3.67763 32.2273 3.42589 31.8584 3.18614 31.4812L9.77647 22.0076L6.00824 16.732L0.430625 24.7C0.334634 24.2389 0.254129 23.7722 0.189679 23.3004L5.39175 15.8689L6 15L6.61649 15.8631L10.5765 21.4072L19.3888 8.86952L19.9999 8L20.6111 8.86952L30.6278 23.1209L34.3834 17.8631L34.9999 17L35.6081 17.8689L40.5274 24.8965C40.433 25.3288 40.3249 25.756 40.2036 26.1776ZM0.430625 24.7C0.940542 27.1491 1.88746 29.4379 3.18614 31.4812L2.91755 31.8673L0.92926 29.5476L0.0643692 25.2232L0.430625 24.7ZM3.94082 32.5872C7.66991 37.6873 13.6981 41 20.5 41C26.966 41 32.7328 38.0064 36.4901 33.3296L37.3407 34.5523L37.9999 35.5L38.0426 35.4093L42.3235 41.5H-2.32362L3.94082 32.5872ZM40.2036 26.1776C39.5504 28.4487 38.5151 30.558 37.1719 32.4315L37.8708 33.4259L40.8483 27.0986L40.2036 26.1776ZM13.9999 22L19.9999 14L25.9999 22L21.9999 21L19.9999 23.5L17.9999 21L13.9999 22ZM33.2856 23.2857L34.9999 21L36.7142 23.2857L35.5714 23L34.9999 23.7143L34.4285 23L33.2856 23.2857ZM4.28565 22.2857L5.99993 20L7.71422 22.2857L6.57136 22L5.99993 22.7143L5.4285 22L4.28565 22.2857Z" fill="white"/>
</g>
</svg>
